Coordinates
version=1
nRows=14
nColumns=63
inDegrees=yes

Units are S.I. units (second, meters, Newtons, ...)
If the header above contains a line with 'inDegrees', this indicates whether rotational values are in degrees (yes) or radians (no).

endheader
time	pelvis_tilt	pelvis_list	pelvis_rotation	pelvis_tx	pelvis_ty	pelvis_tz	hip_flexion_r	hip_adduction_r	hip_rotation_r	knee_angle_r	knee_angle_r_beta	ankle_angle_r	subtalar_angle_r	mtp_angle_r	hip_flexion_l	hip_adduction_l	hip_rotation_l	knee_angle_l	knee_angle_l_beta	ankle_angle_l	subtalar_angle_l	mtp_angle_l	L5_S1_Flex_Ext	L5_S1_Lat_Bending	L5_S1_axial_rotation	L4_L5_Flex_Ext	L4_L5_Lat_Bending	L4_L5_axial_rotation	L3_L4_Flex_Ext	L3_L4_Lat_Bending	L3_L4_axial_rotation	L2_L3_Flex_Ext	L2_L3_Lat_Bending	L2_L3_axial_rotation	L1_L2_Flex_Ext	L1_L2_Lat_Bending	L1_L2_axial_rotation	L1_T12_Flex_Ext	L1_T12_Lat_Bending	L1_T12_axial_rotation	Abs_r3	Abs_r2	Abs_r1	Abs_t1	Abs_t2	neck_flexion	neck_bending	neck_rotation	arm_flex_r	arm_add_r	arm_rot_r	elbow_flex_r	pro_sup_r	wrist_flex_r	wrist_dev_r	arm_flex_l	arm_add_l	arm_rot_l	elbow_flex_l	pro_sup_l	wrist_flex_l	wrist_dev_l
2.050000	6.399166	-9.437855	98.106258	0.110560	0.957369	0.713102	11.427879	2.184852	-5.155995	15.865987	0.276914	32.611022	7.197899	0.000000	6.450238	-1.615849	6.245263	6.084973	0.106203	30.404853	0.585072	0.000000	0.675043	0.599950	-0.611707	1.253623	0.797934	-0.649939	1.109029	1.458719	-0.649939	0.771507	1.458719	-0.535244	0.626845	1.223418	-0.497012	0.385720	0.929323	-0.458781	4.821766	6.786757	-3.402133	0.000000	0.000000	28.197393	2.142819	11.824432	12.153147	-22.111934	47.528117	55.552530	83.315698	-10.831301	7.286374	13.104785	-23.538645	60.668970	54.478951	62.640207	-2.642001	7.322823
2.066667	6.355629	-9.563167	98.018051	0.111460	0.956595	0.714355	11.591300	2.104547	-5.433809	15.833781	0.276352	32.773700	7.651768	0.000000	6.834707	-1.614380	5.382667	6.469818	0.112920	30.932832	1.693225	0.000000	0.683762	0.579475	-0.521011	1.269814	0.770702	-0.553574	1.123352	1.408937	-0.553574	0.781471	1.408937	-0.455885	0.634941	1.181666	-0.423321	0.390701	0.897608	-0.390758	4.884042	6.555143	-2.897706	0.000000	0.000000	28.216936	1.847787	11.036468	11.908738	-21.851443	47.148066	57.171422	82.150749	-9.339410	7.828360	13.768094	-23.612781	61.416416	55.899747	62.154890	-1.641000	5.760505
2.083333	6.351896	-9.650576	98.056342	0.112309	0.955846	0.715505	11.684283	2.055796	-5.860392	15.763738	0.275129	32.907255	8.117146	0.000000	7.198038	-1.660817	4.590068	6.866023	0.119835	31.440006	2.845214	0.000000	0.688976	0.562089	-0.458316	1.279497	0.747578	-0.486961	1.131919	1.366663	-0.486961	0.787431	1.366663	-0.401027	0.639783	1.146212	-0.372382	0.393681	0.870676	-0.343737	4.921286	6.358463	-2.549018	0.000000	0.000000	28.234427	1.577620	10.276781	11.796924	-21.660805	47.134469	58.873544	80.740193	-7.639290	8.588953	14.310729	-23.719420	61.912946	57.516000	62.239149	-0.853810	4.736053
2.100000	6.394170	-9.698512	98.210875	0.113058	0.955131	0.716532	11.709794	2.039982	-6.447615	15.665329	0.273412	33.014199	8.622433	0.000000	7.531744	-1.756671	3.889220	7.259504	0.126702	31.913801	3.993628	0.000000	0.690408	0.549712	-0.427764	1.282156	0.731117	-0.454499	1.134271	1.336570	-0.454499	0.789067	1.336570	-0.374293	0.641113	1.120973	-0.347558	0.394499	0.851504	-0.320823	4.931514	6.218454	-2.379093	0.000000	0.000000	28.248973	1.347916	9.577260	11.819900	-21.556264	47.468030	60.622816	78.978916	-5.793124	9.574971	14.727730	-23.842860	62.149230	59.304488	62.540155	-0.542303	4.331631
2.116667	6.476765	-9.719741	98.482819	0.113717	0.954455	0.717483	11.696230	2.061348	-7.084012	15.557036	0.271522	33.094284	9.030803	0.000000	7.858972	-1.891165	3.287317	7.661869	0.133725	32.362182	5.132882	0.000000	0.688801	0.541696	-0.437062	1.279172	0.720456	-0.464378	1.131631	1.317080	-0.464378	0.787231	1.317080	-0.382429	0.639621	1.104627	-0.355113	0.393581	0.839087	-0.327796	4.920037	6.127774	-2.430807	0.000000	0.000000	28.254851	1.228322	9.029048	12.003023	-21.523130	48.155550	62.348431	76.837161	-3.834057	10.810315	15.075842	-24.016109	62.339385	61.233780	62.838968	-1.021709	4.558083
2.133333	6.596721	-9.708794	98.855171	0.114242	0.953847	0.718336	11.645185	2.113719	-7.780436	15.449890	0.269651	33.164452	9.400876	0.000000	8.164781	-2.060314	2.808192	8.058305	0.140644	32.777016	6.217915	0.000000	0.682849	0.538810	-0.487196	1.268119	0.716617	-0.517646	1.121853	1.310062	-0.517646	0.780428	1.310062	-0.426297	0.634094	1.098741	-0.395847	0.390180	0.834616	-0.365397	4.877523	6.095122	-2.709639	0.000000	0.000000	28.252538	1.230548	8.660148	12.328428	-21.578985	49.146537	64.011800	74.336288	-1.783304	12.256795	15.348551	-24.233159	62.448862	63.279281	63.180137	-2.059577	5.436505
2.150000	6.749897	-9.676819	99.291955	0.114628	0.953335	0.719058	11.578683	2.199686	-8.465174	15.356297	0.268018	33.231563	9.701174	0.000000	8.448623	-2.257324	2.405906	8.434364	0.147207	33.166458	7.265492	0.000000	0.674137	0.541880	-0.572265	1.251939	0.720700	-0.608031	1.107539	1.317526	-0.608031	0.770471	1.317526	-0.500732	0.626003	1.105001	-0.464965	0.385202	0.839372	-0.429199	4.815291	6.129852	-3.182765	0.000000	0.000000	28.240566	1.348410	8.516686	12.724807	-21.727990	50.294227	65.561806	71.603962	0.464647	13.862530	15.538774	-24.473207	62.438695	65.324866	63.680847	-3.039961	6.812842
2.166667	6.930668	-9.639388	99.769768	0.114890	0.952896	0.719613	11.516454	2.312096	-9.126740	15.279694	0.266681	33.321362	9.977686	0.000000	8.707411	-2.476719	2.075276	8.761574	0.152918	33.532296	8.280807	0.000000	0.664896	0.549881	-0.696890	1.234779	0.731341	-0.740446	1.092358	1.336980	-0.740446	0.759910	1.336980	-0.609779	0.617423	1.121316	-0.566223	0.379922	0.851765	-0.522668	4.749287	6.220359	-3.875895	0.000000	0.000000	28.224143	1.621050	8.612951	13.239086	-21.974705	51.716675	67.003964	68.428264	2.637183	15.681632	15.618251	-24.772424	62.299080	67.439867	64.237550	-4.059610	8.937070
2.183333	7.128820	-9.598016	100.250310	0.115039	0.952559	0.720008	11.463800	2.448910	-9.705228	15.221053	0.265657	33.432900	10.214986	0.000000	8.935513	-2.709722	1.764129	9.039618	0.157771	33.879395	9.282981	0.000000	0.655144	0.563074	-0.848800	1.216668	0.748889	-0.901850	1.076336	1.369059	-0.901850	0.748764	1.369059	-0.742700	0.608367	1.148222	-0.689650	0.374349	0.872202	-0.636600	4.679630	6.369611	-4.720771	0.000000	0.000000	28.201058	2.015859	8.990778	13.804305	-22.307434	53.291470	68.293247	64.881307	4.764105	17.695956	15.644834	-25.091637	62.087087	69.405978	64.723042	-4.409299	11.400889
2.200000	7.321543	-9.570752	100.705470	0.115119	0.952311	0.720269	11.444577	2.592249	-10.168125	15.190241	0.265120	33.550490	10.368724	0.000000	9.141763	-2.923940	1.576819	9.265667	0.161716	34.156659	10.067204	0.000000	0.646926	0.577862	-1.016360	1.201406	0.768556	-1.079883	1.062834	1.405014	-1.079883	0.739371	1.405014	-0.889315	0.600735	1.178376	-0.825793	0.369653	0.895108	-0.762270	4.620925	6.536890	-5.652690	0.000000	0.000000	28.173861	2.517632	9.579923	14.309967	-22.658011	54.764185	69.408600	61.759125	6.993614	19.640025	15.605997	-25.417542	61.751063	71.183160	65.455770	-3.993016	14.037163
2.216667	7.514611	-9.540618	101.112473	0.115131	0.952156	0.720467	11.439533	2.750431	-10.507744	15.174650	0.264848	33.661497	10.463139	0.000000	9.318840	-3.142117	1.282250	9.461512	0.165135	34.428848	10.939170	0.000000	0.637939	0.595774	-1.189277	1.184716	0.792380	-1.263607	1.048070	1.448566	-1.263607	0.729100	1.448566	-1.040618	0.592390	1.214903	-0.966288	0.364518	0.922855	-0.891958	4.556733	6.739520	-6.614405	0.000000	0.000000	28.141002	3.075576	10.344233	14.834318	-23.033058	56.253373	70.336223	58.947658	9.126138	21.481664	15.693386	-25.785607	61.756609	72.749733	65.449523	-3.205089	16.849435
2.233333	7.687604	-9.513994	101.425173	0.115126	0.952077	0.720602	11.456808	2.905238	-10.710621	15.188263	0.265085	33.764344	10.507953	0.000000	9.451671	-3.337175	1.018529	9.609303	0.167714	34.633040	11.639284	0.000000	0.629446	0.613448	-1.346623	1.168943	0.815886	-1.430787	1.034116	1.491539	-1.430787	0.719393	1.491539	-1.178295	0.584503	1.250944	-1.094131	0.359665	0.950232	-1.009967	4.496067	6.939451	-7.489513	0.000000	0.000000	28.105291	3.636257	11.137454	15.266758	-23.397748	57.548339	71.085237	56.854158	11.087095	23.128755	15.919615	-26.133408	62.044764	74.063063	65.094492	-1.961445	19.667115
2.250000	7.842490	-9.480304	101.656061	0.115078	0.952071	0.720735	11.478099	3.057228	-10.800226	15.214016	0.265535	33.844293	10.489470	0.000000	9.537476	-3.508341	0.830819	9.719949	0.169645	34.759490	12.122275	0.000000	0.619829	0.631117	-1.486077	1.151084	0.839386	-1.578957	1.018317	1.534498	-1.578957	0.708403	1.534498	-1.300318	0.575573	1.286974	-1.207438	0.354170	0.977600	-1.114558	4.427377	7.139323	-8.265116	0.000000	0.000000	28.066831	4.179402	11.918851	15.641071	-23.742774	58.679388	71.635402	55.483843	12.786576	24.493241	16.338299	-26.448043	62.734314	75.115361	64.257350	-0.590608	22.194741
2.266667	7.977935	-9.456254	101.768234	0.115045	0.952108	0.720875	11.523747	3.206844	-10.756888	15.260209	0.266341	33.897178	10.418592	0.000000	9.590390	-3.654886	0.718443	9.800069	0.171043	34.799860	12.337033	0.000000	0.611887	0.648149	-1.596549	1.136336	0.862038	-1.696333	1.005270	1.575909	-1.696333	0.699326	1.575909	-1.396980	0.568199	1.321705	-1.297196	0.349632	1.003982	-1.197412	4.370651	7.331988	-8.879527	0.000000	0.000000	28.028511	4.672605	12.616683	15.928975	-24.059404	59.602601	72.014930	54.878367	14.205458	25.630577	16.854385	-26.674472	63.607543	75.868730	63.176615	0.946269	24.348671
